# xmcd
#
# Track frame offsets:
#	150
#	16451
#	36198
#	52798
#	65006
#	85895
#	107259
#	125722
#	142198
#	154120
#	170961
#
# Disc length: 2521 seconds
#
# Revision: 1
# Processed by: cddbd v1.5PL3 Copyright (c) Steve Scherf et al.
# Submitted via: EasyCDDAExtractor 7.0.4.1
#
DISCID=9709d70b
DTITLE=Christine Saunders - Beautiful Life
DYEAR=2002
DGENRE=Country
TTITLE0=Where do Promises go
TTITLE1=I will give you love
TTITLE2=About last night
TTITLE3=Beautiful Life
TTITLE4=Baby in Blue
TTITLE5=Five and Dime
TTITLE6=Amber's Song
TTITLE7=Magic
TTITLE8=1979
TTITLE9=Turn it up
TTITLE10=Brown
EXTD=
EXTT0=
EXTT1=
EXTT2=
EXTT3=
EXTT4=
EXTT5=
EXTT6=
EXTT7=
EXTT8=
EXTT9=
EXTT10=
PLAYORDER=
